<?xml version="1.0" encoding="UTF-8"?>
<svg id="Capa_2" data-name="Capa 2" xmlns="http://www.w3.org/2000/svg" viewBox="0 0 302.65 92.89">
  <g id="Capa_1-2" data-name="Capa 1">
    <g>
      <path d="M216.15,72.13c-1.37,1.67-9.02,6.06-11.38,7.34-38.86,21.14-86.57,17.05-121.17-10.45-1.51-1.2-11.42-8.98-9.6-10.8,7.28,2.16,13.98,7.01,21.09,10.13,32.05,14.07,67.62,16.18,101.14,5.91,4.18-1.28,15.4-6.7,18.17-6.89,3.35-.23,3.48,2.64,1.75,4.75Z"/>
      <path d="M73.17,14.08c3.36-1.12,6.81-1.8,7.51,2.5,4.41-3.46,14.83-6.46,17.51-.01,5.08-3.23,14.87-6.6,18.63.09,1.67,2.98,2.02,20.74,1.32,24.5-.18.95-.29,1.69-1.37,1.96l-6.96.12v-21.24c0-3.68-7.38-3.12-9.63-1.3l-.48,21.17-1.25,1.25-6.96.12v-21.24c0-3.79-8.05-3.22-9.99-.83v22.07h-8.33V14.08Z"/>
      <path d="M238.07,41.98c-.65,2.1-8.62,2.12-8.74-1.25-10.87,8.1-20.66-.48-20.47-12.92s9.6-18.38,20.88-12.91c-1.13-2.17-1.49-12.79-.05-13.79,2.61-.5,6.48-1.22,8.38.89v39.98ZM228.91,19.91c-15.75-6.41-15.72,23.08,0,16.66v-16.66Z"/>
      <path d="M9.04,54.89c-2.16-.37-8.23,1.12-9.04-1.37L.29,14.9c3.69-4.16,6.58.42,8.48.72,1.14.18,2.3-1.58,3.58-1.98,25.12-7.69,21.74,41.05-3.31,27.92v13.33ZM13.01,19.27c-1.2.19-3.42.74-3.85,2-.4,1.17-.4,11.64-.11,13.21.78,4.28,9.64,4.23,11.29-1.21,1.81-5.98.74-15.3-7.33-14.01Z"/>
      <path d="M287.76,12.73c20.22-.08,19.81,32.28-.98,31.38-18.69-.81-18.47-31.31.98-31.38ZM286.99,19.2c-7.62,1.39-7.65,19.88,2.25,18.2,6.89-1.17,6.48-19.8-2.25-18.2Z"/>
      <path d="M250.56,30.74c1.62,9.33,10.38,6.8,17.48,5.83,2.05,7.72-8.06,8.11-13.52,7.27-11.94-1.82-14.63-17.27-8-25.89,6.89-8.96,26.15-5.52,22.19,8.03-1.56,5.36-13.61,6.17-18.15,4.76ZM251.39,25.73c2.82-.24,8.92,1.21,9.88-2.25,1.88-6.77-11.77-5.6-9.88,2.25Z"/>
      <path d="M130.64,30.74c.6,7.76,6.04,6.77,12.06,6.65,4.86-.09,5.84-2.82,4.46,4.87-15.16,6.73-29-3.84-23.23-20.31,4.32-12.33,25.66-11.7,25.08.86-.41,8.81-11.94,9.43-18.37,7.93ZM130.64,25.73c2.8-.35,9,1.19,10.43-1.66l.28-2.74c-3.56-5.24-10.91-1.5-10.71,4.4Z"/>
      <path d="M170.41,14.28l6.44,20.63,6.44-20.63c1.56-1.17,7.43-1.95,8.1.31s-9.24,22.6-9.77,26.76c-.66,2.75-7.6,2.48-8.96,1.08-2.29-7.92-8.61-18-10.04-25.82-.91-4.97,4.53-3.73,7.79-2.32Z"/>
      <path d="M34.86,14.08c3.93-1.19,7.96-1.82,7.92,3.34,6.15-4.38,12.7-8.12,11.24,3.33l-10.83,2.08v20.4c-2.74-.31-6.35,1.03-8.33-1.25V14.08Z"/>
      <path d="M218.09,87.36c-1.59-1.84,7.77-18.49,4.24-22.98-1.85-2.35-14.89-.92-18.39-.73-1.43.08-2.12,1.03-3.32-.85,3.71-6.39,24.51-8.44,28.76-4.63,4.04,3.61-2.87,20.87-5.94,24.98-.5.67-4.49,5.22-5.35,4.22Z"/>
      <path d="M203.92,14.08v27.9l-1.38,1.12c-1.05.24-2.13.18-3.2.18-1.71,0-3.52.28-4.58-1.3V15.33c0-2.6,7.28-2.39,9.16-1.25Z"/>
      <path d="M57.35,15.33c.73-2.6,7.6-3.08,8.73-.46l.34,27.05c-.48,2.03-8.08,1.95-9.06.06V15.33Z"/>
      <path d="M61.28.05c5.5-.84,8.1,8.38,1.39,9.02-7.41.7-6.8-8.19-1.39-9.02Z"/>
      <path d="M198.7.05c5.5-.84,8.1,8.38,1.39,9.02-7.41.7-6.8-8.19-1.39-9.02Z"/>
    </g>
  </g>
</svg>